<svg width="241" height="277" viewBox="0 0 241 277" fill="none" xmlns="http://www.w3.org/2000/svg">
<path d="M0 33C0 14.7746 14.7746 0 33 0H208C226.225 0 241 14.7746 241 33V244C241 262.225 226.225 277 208 277H33C14.7746 277 0 262.225 0 244V33Z" fill="#C9B6FF"/>
<path d="M90.8723 213.88L86.2317 228.025H82.4934L88.8333 210.962H91.2122L90.8723 213.88ZM94.7278 228.025L90.0754 213.88L89.7004 210.962H92.1028L98.4778 228.025H94.7278ZM94.5169 221.673V224.427H85.5051V221.673H94.5169ZM101.665 210.962H104.642L109.025 223.49L113.407 210.962H116.384L110.22 228.025H107.829L101.665 210.962ZM100.06 210.962H103.025L103.564 223.173V228.025H100.06V210.962ZM115.025 210.962H118.001V228.025H114.486V223.173L115.025 210.962ZM128.161 210.962L121.904 229.49H119.396L125.654 210.962H128.161ZM136.634 221.943H132.286V219.201H136.634C137.306 219.201 137.853 219.091 138.275 218.873C138.697 218.646 139.005 218.333 139.2 217.935C139.396 217.537 139.493 217.087 139.493 216.587C139.493 216.08 139.396 215.607 139.2 215.169C139.005 214.732 138.697 214.38 138.275 214.115C137.853 213.849 137.306 213.716 136.634 213.716H133.505V228.025H129.99V210.962H136.634C137.97 210.962 139.115 211.205 140.068 211.689C141.029 212.166 141.763 212.826 142.271 213.669C142.779 214.513 143.032 215.478 143.032 216.564C143.032 217.666 142.779 218.619 142.271 219.423C141.763 220.228 141.029 220.849 140.068 221.287C139.115 221.724 137.97 221.943 136.634 221.943ZM147.064 210.962H150.04L154.423 223.49L158.806 210.962H161.782L155.618 228.025H153.228L147.064 210.962ZM145.458 210.962H148.423L148.962 223.173V228.025H145.458V210.962ZM160.423 210.962H163.4V228.025H159.884V223.173L160.423 210.962Z" fill="black"/>
<path d="M104.064 127.318V191.434H91.4082V141.908L76.2031 146.742V136.766L102.702 127.318H104.064ZM167.961 153.817V164.891C167.961 169.696 167.448 173.841 166.423 177.328C165.397 180.785 163.918 183.627 161.984 185.853C160.08 188.05 157.81 189.676 155.173 190.731C152.536 191.786 149.606 192.313 146.384 192.313C143.806 192.313 141.403 191.991 139.177 191.346C136.95 190.672 134.943 189.632 133.156 188.226C131.398 186.82 129.875 185.047 128.586 182.909C127.326 180.741 126.359 178.163 125.686 175.174C125.012 172.186 124.675 168.758 124.675 164.891V153.817C124.675 149.012 125.187 144.896 126.213 141.468C127.268 138.011 128.747 135.184 130.651 132.987C132.585 130.79 134.87 129.178 137.507 128.153C140.144 127.098 143.073 126.571 146.296 126.571C148.874 126.571 151.262 126.908 153.459 127.582C155.686 128.226 157.692 129.237 159.479 130.614C161.267 131.991 162.79 133.763 164.05 135.931C165.31 138.07 166.276 140.633 166.95 143.622C167.624 146.581 167.961 149.979 167.961 153.817ZM155.261 166.561V152.103C155.261 149.789 155.129 147.767 154.865 146.039C154.631 144.31 154.265 142.845 153.767 141.644C153.269 140.414 152.653 139.418 151.921 138.656C151.188 137.894 150.354 137.337 149.416 136.986C148.479 136.634 147.438 136.459 146.296 136.459C144.86 136.459 143.586 136.737 142.473 137.294C141.389 137.85 140.466 138.744 139.704 139.974C138.942 141.175 138.356 142.787 137.946 144.808C137.565 146.8 137.375 149.232 137.375 152.103V166.561C137.375 168.876 137.492 170.912 137.727 172.669C137.99 174.427 138.371 175.936 138.869 177.196C139.396 178.426 140.012 179.437 140.715 180.228C141.447 180.99 142.282 181.546 143.22 181.898C144.187 182.25 145.241 182.425 146.384 182.425C147.79 182.425 149.035 182.147 150.119 181.59C151.232 181.004 152.17 180.096 152.932 178.866C153.723 177.606 154.309 175.965 154.689 173.944C155.07 171.922 155.261 169.461 155.261 166.561Z" fill="black"/>
<path d="M91.1373 54.001V55.4497C91.1373 57.7733 90.8224 59.8589 90.1925 61.7065C89.5626 63.5542 88.6738 65.1289 87.526 66.4307C86.3782 67.7184 85.0064 68.7052 83.4107 69.3911C81.829 70.077 80.0724 70.4199 78.1407 70.4199C76.2231 70.4199 74.4664 70.077 72.8707 69.3911C71.289 68.7052 69.9172 67.7184 68.7555 66.4307C67.5937 65.1289 66.6908 63.5542 66.047 61.7065C65.4171 59.8589 65.1021 57.7733 65.1021 55.4497V54.001C65.1021 51.6634 65.4171 49.5778 66.047 47.7441C66.6768 45.8965 67.5657 44.3218 68.7135 43.02C69.8753 41.7183 71.247 40.7244 72.8287 40.0386C74.4244 39.3527 76.1811 39.0098 78.0987 39.0098C80.0304 39.0098 81.787 39.3527 83.3687 40.0386C84.9644 40.7244 86.3362 41.7183 87.484 43.02C88.6458 44.3218 89.5416 45.8965 90.1715 47.7441C90.8154 49.5778 91.1373 51.6634 91.1373 54.001ZM84.7755 55.4497V53.959C84.7755 52.3353 84.6285 50.9076 84.3346 49.6758C84.0406 48.444 83.6067 47.4082 83.0328 46.5684C82.4589 45.7285 81.759 45.0986 80.9332 44.6787C80.1074 44.2448 79.1625 44.0278 78.0987 44.0278C77.0349 44.0278 76.0901 44.2448 75.2643 44.6787C74.4524 45.0986 73.7595 45.7285 73.1856 46.5684C72.6257 47.4082 72.1988 48.444 71.9049 49.6758C71.6109 50.9076 71.464 52.3353 71.464 53.959V55.4497C71.464 57.0594 71.6109 58.4871 71.9049 59.7329C72.1988 60.9647 72.6327 62.0075 73.2066 62.8613C73.7805 63.7012 74.4804 64.3381 75.3062 64.772C76.1321 65.2059 77.0769 65.4229 78.1407 65.4229C79.2045 65.4229 80.1493 65.2059 80.9752 64.772C81.801 64.3381 82.4939 63.7012 83.0538 62.8613C83.6137 62.0075 84.0406 60.9647 84.3346 59.7329C84.6285 58.4871 84.7755 57.0594 84.7755 55.4497ZM107.577 59.103H99.7877V54.1899H107.577C108.781 54.1899 109.761 53.994 110.517 53.6021C111.273 53.1961 111.825 52.6362 112.175 51.9224C112.525 51.2085 112.7 50.4036 112.7 49.5078C112.7 48.598 112.525 47.7511 112.175 46.9673C111.825 46.1834 111.273 45.5535 110.517 45.0776C109.761 44.6017 108.781 44.3638 107.577 44.3638H101.971V70H95.6725V39.4297H107.577C109.971 39.4297 112.021 39.8636 113.729 40.7314C115.451 41.5853 116.767 42.7681 117.676 44.2798C118.586 45.7915 119.041 47.5202 119.041 49.4658C119.041 51.4395 118.586 53.1471 117.676 54.5889C116.767 56.0306 115.451 57.1434 113.729 57.9272C112.021 58.7111 109.971 59.103 107.577 59.103ZM143.9 65.0869V70H127.629V65.0869H143.9ZM129.686 39.4297V70H123.387V39.4297H129.686ZM141.78 51.8804V56.6675H127.629V51.8804H141.78ZM143.879 39.4297V44.3638H127.629V39.4297H143.879ZM172.455 39.4297V70H166.156L153.874 49.5078V70H147.575V39.4297H153.874L166.177 59.9429V39.4297H172.455ZM83.4796 96.8301V100.943H70.1202V96.8301H83.4796ZM71.6847 86.4062V112H66.4112V86.4062H71.6847ZM87.2413 86.4062V112H81.9854V86.4062H87.2413ZM112.853 98.6055V99.8184C112.853 101.764 112.589 103.51 112.062 105.057C111.534 106.604 110.79 107.922 109.829 109.012C108.868 110.09 107.72 110.916 106.384 111.49C105.06 112.064 103.589 112.352 101.972 112.352C100.366 112.352 98.8956 112.064 97.5597 111.49C96.2354 110.916 95.087 110.09 94.1143 109.012C93.1417 107.922 92.3858 106.604 91.8468 105.057C91.3194 103.51 91.0558 101.764 91.0558 99.8184V98.6055C91.0558 96.6484 91.3194 94.9023 91.8468 93.3672C92.3741 91.8203 93.1183 90.502 94.0792 89.4121C95.0518 88.3223 96.2003 87.4902 97.5245 86.916C98.8604 86.3418 100.331 86.0547 101.937 86.0547C103.554 86.0547 105.025 86.3418 106.349 86.916C107.685 87.4902 108.833 88.3223 109.794 89.4121C110.767 90.502 111.517 91.8203 112.044 93.3672C112.583 94.9023 112.853 96.6484 112.853 98.6055ZM107.526 99.8184V98.5703C107.526 97.2109 107.403 96.0156 107.157 94.9844C106.911 93.9531 106.548 93.0859 106.067 92.3828C105.587 91.6797 105.001 91.1523 104.31 90.8008C103.618 90.4375 102.827 90.2559 101.937 90.2559C101.046 90.2559 100.255 90.4375 99.5636 90.8008C98.8839 91.1523 98.3038 91.6797 97.8233 92.3828C97.3546 93.0859 96.9972 93.9531 96.7511 94.9844C96.505 96.0156 96.3819 97.2109 96.3819 98.5703V99.8184C96.3819 101.166 96.505 102.361 96.7511 103.404C96.9972 104.436 97.3604 105.309 97.8409 106.023C98.3214 106.727 98.9073 107.26 99.5987 107.623C100.29 107.986 101.081 108.168 101.972 108.168C102.862 108.168 103.653 107.986 104.345 107.623C105.036 107.26 105.616 106.727 106.085 106.023C106.554 105.309 106.911 104.436 107.157 103.404C107.403 102.361 107.526 101.166 107.526 99.8184ZM130.782 86.4062H136.038V103.316C136.038 105.285 135.616 106.943 134.773 108.291C133.941 109.639 132.786 110.652 131.31 111.332C129.845 112.012 128.157 112.352 126.247 112.352C124.337 112.352 122.638 112.012 121.15 111.332C119.673 110.652 118.513 109.639 117.669 108.291C116.837 106.943 116.421 105.285 116.421 103.316V86.4062H121.694V103.316C121.694 104.465 121.876 105.402 122.239 106.129C122.603 106.855 123.124 107.389 123.804 107.729C124.495 108.068 125.31 108.238 126.247 108.238C127.208 108.238 128.023 108.068 128.691 107.729C129.37 107.389 129.886 106.855 130.237 106.129C130.601 105.402 130.782 104.465 130.782 103.316V86.4062ZM140.38 86.4062H149.925C151.882 86.4062 153.564 86.6992 154.97 87.2852C156.388 87.8711 157.478 88.7383 158.239 89.8867C159.001 91.0352 159.382 92.4473 159.382 94.123C159.382 95.4941 159.148 96.6719 158.679 97.6562C158.222 98.6289 157.571 99.4434 156.728 100.1C155.896 100.744 154.917 101.26 153.792 101.646L152.122 102.525H143.825L143.79 98.4121H149.96C150.886 98.4121 151.653 98.248 152.263 97.9199C152.872 97.5918 153.329 97.1348 153.634 96.5488C153.95 95.9629 154.108 95.2832 154.108 94.5098C154.108 93.6895 153.956 92.9805 153.651 92.3828C153.347 91.7852 152.884 91.3281 152.263 91.0117C151.642 90.6953 150.862 90.5371 149.925 90.5371H145.653V112H140.38V86.4062ZM154.689 112L148.853 100.592L154.425 100.557L160.331 111.754V112H154.689ZM176.767 105.303C176.767 104.846 176.696 104.436 176.556 104.072C176.427 103.697 176.181 103.357 175.817 103.053C175.454 102.736 174.944 102.426 174.288 102.121C173.632 101.816 172.782 101.5 171.739 101.172C170.579 100.797 169.478 100.375 168.435 99.9062C167.403 99.4375 166.489 98.8926 165.692 98.2715C164.907 97.6387 164.286 96.9062 163.829 96.0742C163.384 95.2422 163.161 94.2754 163.161 93.1738C163.161 92.1074 163.396 91.1406 163.864 90.2734C164.333 89.3945 164.989 88.6445 165.833 88.0234C166.677 87.3906 167.673 86.9043 168.821 86.5645C169.982 86.2246 171.253 86.0547 172.636 86.0547C174.523 86.0547 176.169 86.3945 177.575 87.0742C178.982 87.7539 180.071 88.6855 180.845 89.8691C181.63 91.0527 182.023 92.4062 182.023 93.9297H176.784C176.784 93.1797 176.626 92.5234 176.31 91.9609C176.005 91.3867 175.536 90.9355 174.903 90.6074C174.282 90.2793 173.497 90.1152 172.548 90.1152C171.634 90.1152 170.872 90.2559 170.263 90.5371C169.653 90.8066 169.196 91.1758 168.892 91.6445C168.587 92.1016 168.435 92.6172 168.435 93.1914C168.435 93.625 168.54 94.0176 168.751 94.3691C168.974 94.7207 169.302 95.0488 169.735 95.3535C170.169 95.6582 170.702 95.9453 171.335 96.2148C171.968 96.4844 172.7 96.748 173.532 97.0059C174.927 97.4277 176.151 97.9023 177.206 98.4297C178.273 98.957 179.163 99.5488 179.878 100.205C180.593 100.861 181.132 101.605 181.495 102.438C181.858 103.27 182.04 104.213 182.04 105.268C182.04 106.381 181.823 107.377 181.39 108.256C180.956 109.135 180.329 109.879 179.509 110.488C178.689 111.098 177.71 111.561 176.573 111.877C175.437 112.193 174.165 112.352 172.759 112.352C171.493 112.352 170.245 112.188 169.015 111.859C167.784 111.52 166.665 111.01 165.657 110.33C164.661 109.65 163.864 108.783 163.267 107.729C162.669 106.674 162.37 105.426 162.37 103.984H167.661C167.661 104.781 167.784 105.455 168.03 106.006C168.276 106.557 168.622 107.002 169.067 107.342C169.525 107.682 170.064 107.928 170.685 108.08C171.317 108.232 172.009 108.309 172.759 108.309C173.673 108.309 174.423 108.18 175.009 107.922C175.607 107.664 176.046 107.307 176.327 106.85C176.62 106.393 176.767 105.877 176.767 105.303Z" fill="black"/>
</svg>
